<svg
   version="1.1"
   viewBox="0 0 50.000001 50.000001"
   >
  <defs
     id="defs4" />
  <g
     transform="translate(0,-1002.3622)">
    <g
       style=""
       transform="matrix(-1.0271152,0,0,0.97360061,1.2857143,0.17857143)">
      <path
         d="m -23.237453,1069.0952 c -1.337433,0 -2.674866,0 -4.012299,0 5.33e-4,-3.4806 0.0011,-6.9612 0.0016,-10.4418 -3.447923,1.4428 -6.895845,2.8856 -10.343768,4.3284 -1.445225,2.0378 -2.890499,4.0755 -4.335724,6.1133 -1.665227,0 -3.330453,0 -4.99568,0 5.87784,-9.4381 11.755681,-18.8762 17.633521,-28.3143 1.992114,0 3.984229,0 5.976343,0 0.02533,9.4381 0.05068,18.8763 0.07601,28.3144 z m -3.910731,-14.3878 c 0.02098,-3.5635 0.04195,-7.127 0.06293,-10.6905 -2.640607,4.5402 -5.281172,9.0805 -7.921779,13.6207 2.619627,-0.9767 5.239222,-1.9535 7.858849,-2.9302 z" />
      <path
         d="m -0.08320337,1069.1276 -6.18040183,0 -12.5315718,-10.3818 c -0.230535,3.4373 -0.177135,6.8999 -0.274053,10.3494 l -3.765096,0 0,-28.3143 c 4.297469,0.1276 6.713918,-0.3429 10.960199,0.4728 3.0721658,0.7768 5.7631379,3.5458 5.6439993,6.8484 0.1889095,2.4574 -0.3137073,5.1372 -2.2078022,6.8685 -2.0535031,2.2364 -3.2870391,3.3454 -6.2883831,2.9395 4.8810204,3.7392 9.7620892,7.4783 14.64310963,11.2175 z M -10.158498,1048.7484 c 0.2527367,-2.7796 -2.499143,-4.8191 -5.102582,-4.6661 -1.011959,-0.3446 -1.011959,-0.3446 -3.744125,-0.2734 l -0.0025,10.8914 c 3.074843,-0.027 4.673277,0.5934 7.23722,-1.5286 1.194467,-1.1207 1.670762,-2.824 1.612035,-4.4233 z" />
    </g>
  </g>
</svg>
