<?xml version="1.0" encoding="UTF-8" standalone="no"?>
<svg
   xmlns:dc="http://purl.org/dc/elements/1.1/"
   xmlns:cc="http://creativecommons.org/ns#"
   xmlns:rdf="http://www.w3.org/1999/02/22-rdf-syntax-ns#"
   xmlns:svg="http://www.w3.org/2000/svg"
   xmlns="http://www.w3.org/2000/svg"
   version="1.1"
   viewBox="0 0 50 50"
  >
  <g
     transform="">
    <path
       style=""
       d="m 44.833984,-0.00195313 1.738282,0 z m 1.738282,0 L 33.767578,32.9375 l 16.230469,14.490234 -0.002,-47.43164025 z m -1.738282,0 L 41.564453,0 28.298828,34.007812 28.222656,0 l -1.328125,0 0,45.878906 c 0,0 11.742756,-30.008793 17.939453,-45.88085913 z M 19.505859,0 0,50 6.1835938,50 9.9726562,40.128906 C 13.774415,43.431223 17.694851,46.678909 21.441406,50 l 4.041016,0.0039 C 25.4953,33.342853 25.425781,16.661111 25.425781,0 Z m 2.324219,9.1816406 -0.527344,30.7929684 -8.34375,-7.533203 z m 22.060547,0 -0.527344,30.7929684 -8.34375,-7.533203 z M 33.099609,34.652344 27.107422,50 l 1.226562,0 c 0,0 2.445204,-6.603636 3.699219,-9.871094 L 43.509766,49.972656 43.501953,50 50,50.009766 Z"
       transform=""
  </g>
</svg>
