<?xml version='1.0' encoding='iso-8859-1'?>
<svg version="1.1" xmlns="http://www.w3.org/2000/svg" viewBox="0 0 489.123 489.123" xmlns:xlink="http://www.w3.org/1999/xlink" enable-background="new 0 0 489.123 489.123">
  <g>
    <g>
      <path d="m478.637,305.961h-93.7l102-125.9c4.5-4.5 2.2-17.7-8.3-17.7h-92.8l101.1-124.8c4.2-4.8 2.6-17.7-8.3-17.7h-106.1v-19.8h-257v19.8h-105.1c-9.6,0-12.7,12.2-8.3,16.6l102,125.9h-93.7c-10.3,0-12.7,13.3-8.3,17.7l101.1,124.8h-92.8c-10.9,0-12.5,12.3-8.3,17.7l113.4,140v26.5h257v-25.2l114.4-140.2c4-5.9 2.6-17-8.3-17.7zm-363.1,123.8l-83.2-103h83.2v103zm0-143.6l-83.2-103h83.2v103zm0-142.5l-83.2-103h83.2v103zm236.2,324.6h-215.4v-153-142.5-151.9h215.4v447.4zm21.8-427.6h83.2l-83.2,103v-103zm0,142.5h83.2l-83.2,103v-103zm0,246.6v-103h83.2l-83.2,103z"/>
      <path d="m244.537,455.461c32.2,0 58.5-26.2 58.5-58.5s-26.3-58.4-58.5-58.4-58.5,26.2-58.5,58.5 26.3,58.4 58.5,58.4zm0-96.2c20.8,0 37.7,16.9 37.7,37.7s-16.9,37.7-37.7,37.7-37.7-16.9-37.7-37.7c-5.68434e-14-20.8 16.9-37.7 37.7-37.7z"/>
      <path d="m244.537,303.061c32.2,0 58.5-26.2 58.5-58.5s-26.2-58.5-58.5-58.5-58.5,26.2-58.5,58.5 26.3,58.5 58.5,58.5zm0-96.2c20.8,0 37.7,16.9 37.7,37.7s-16.9,37.7-37.7,37.7-37.7-16.9-37.7-37.7c-5.68434e-14-20.8 16.9-37.7 37.7-37.7z"/>
      <path d="m244.537,150.561c32.2,0 58.5-26.2 58.5-58.5s-26.3-58.4-58.5-58.4-58.5,26.2-58.5,58.5 26.3,58.4 58.5,58.4zm0-96.1c20.8,0 37.7,16.9 37.7,37.7s-16.9,37.7-37.7,37.7-37.7-16.9-37.7-37.7 16.9-37.7 37.7-37.7z"/>
    </g>
  </g>
</svg>
